<?xml version="1.0" encoding="UTF-8" standalone="no"?>
<!DOCTYPE svg PUBLIC "-//W3C//DTD SVG 1.1//EN" "http://www.w3.org/Graphics/SVG/1.1/DTD/svg11.dtd">
<svg width="100%" height="100%" viewBox="0 0 5000 2000" version="1.1" xmlns="http://www.w3.org/2000/svg" xmlns:xlink="http://www.w3.org/1999/xlink" xml:space="preserve" xmlns:serif="http://www.serif.com/" style="fill-rule:evenodd;clip-rule:evenodd;stroke-linejoin:round;stroke-miterlimit:2;">
    <g transform="matrix(4.20877,0,0,4.20877,1978.11,-247.69)">
        <g>
            <path d="M666.3,296.5C666.3,264 625.6,233.2 563.2,214.1C577.6,150.5 571.2,99.9 543,83.7C536.5,79.9 528.9,78.1 520.6,78.1L520.6,100.4C525.2,100.4 528.9,101.3 532,103C545.6,110.8 551.5,140.5 546.9,178.7C545.8,188.1 544,198 541.8,208.1C522.2,203.3 500.8,199.6 478.3,197.2C464.8,178.7 450.8,161.9 436.7,147.2C469.3,116.9 499.9,100.3 520.7,100.3L520.7,78C493.2,78 457.2,97.6 420.8,131.6C384.4,97.8 348.4,78.4 320.9,78.4L320.9,100.7C341.6,100.7 372.3,117.2 404.9,147.3C390.9,162 376.9,178.7 363.6,197.2C341,199.6 319.6,203.3 300,208.2C297.7,198.2 296,188.5 294.8,179.2C290.1,141 295.9,111.3 309.4,103.4C312.4,101.6 316.3,100.8 320.9,100.8L320.9,78.5C312.5,78.5 304.9,80.3 298.3,84.1C270.2,100.3 263.9,150.8 278.4,214.2C216.2,233.4 175.7,264.1 175.7,296.5C175.7,329 216.4,359.8 278.8,378.9C264.4,442.5 270.8,493.1 299,509.3C305.5,513.1 313.1,514.9 321.5,514.9C349,514.9 385,495.3 421.4,461.3C457.8,495.1 493.8,514.5 521.3,514.5C529.7,514.5 537.3,512.7 543.9,508.9C572,492.7 578.3,442.2 563.8,378.8C625.8,359.7 666.3,328.9 666.3,296.5ZM536.1,229.8C532.4,242.7 527.8,256 522.6,269.3C518.5,261.3 514.2,253.3 509.5,245.3C504.9,237.3 500,229.5 495.1,221.9C509.3,224 523,226.6 536.1,229.8ZM490.3,336.3C482.5,349.8 474.5,362.6 466.2,374.5C451.3,375.8 436.2,376.5 421,376.5C405.9,376.5 390.8,375.8 376,374.6C367.7,362.7 359.6,350 351.8,336.6C344.2,323.5 337.3,310.2 331,296.8C337.2,283.4 344.2,270 351.7,256.9C359.5,243.4 367.5,230.6 375.8,218.7C390.7,217.4 405.8,216.7 421,216.7C436.1,216.7 451.2,217.4 466,218.6C474.3,230.5 482.4,243.2 490.2,256.6C497.8,269.7 504.7,283 511,296.4C504.7,309.8 497.8,323.2 490.3,336.3ZM522.6,323.3C528,336.7 532.6,350.1 536.4,363.1C523.3,366.3 509.5,369 495.2,371.1C500.1,363.4 505,355.5 509.6,347.4C514.2,339.4 518.5,331.3 522.6,323.3ZM421.2,430C411.9,420.4 402.6,409.7 393.4,398C402.4,398.4 411.6,398.7 420.9,398.7C430.3,398.7 439.6,398.5 448.7,398C439.7,409.7 430.4,420.4 421.2,430ZM346.8,371.1C332.6,369 318.9,366.4 305.8,363.2C309.5,350.3 314.1,337 319.3,323.7C323.4,331.7 327.7,339.7 332.4,347.7C337.1,355.7 341.9,363.5 346.8,371.1ZM420.7,163C430,172.6 439.3,183.3 448.5,195C439.5,194.6 430.3,194.3 421,194.3C411.6,194.3 402.3,194.5 393.2,195C402.2,183.3 411.5,172.6 420.7,163ZM346.7,221.9C341.8,229.6 336.9,237.5 332.3,245.6C327.7,253.6 323.4,261.6 319.3,269.6C313.9,256.2 309.3,242.8 305.5,229.8C318.6,226.7 332.4,224 346.7,221.9ZM256.2,347.1C220.8,332 197.9,312.2 197.9,296.5C197.9,280.8 220.8,260.9 256.2,245.9C264.8,242.2 274.2,238.9 283.9,235.8C289.6,255.4 297.1,275.8 306.4,296.7C297.2,317.5 289.8,337.8 284.2,357.3C274.3,354.2 264.9,350.8 256.2,347.1ZM310,490C296.4,482.2 290.5,452.5 295.1,414.3C296.2,404.9 298,395 300.2,384.9C319.8,389.7 341.2,393.4 363.7,395.8C377.2,414.3 391.2,431.1 405.3,445.8C372.7,476.1 342.1,492.7 321.3,492.7C316.8,492.6 313,491.7 310,490ZM547.2,413.8C551.9,452 546.1,481.7 532.6,489.6C529.6,491.4 525.7,492.2 521.1,492.2C500.4,492.2 469.7,475.7 437.1,445.6C451.1,430.9 465.1,414.2 478.4,395.7C501,393.3 522.4,389.6 542,384.7C544.3,394.8 546.1,404.5 547.2,413.8ZM585.7,347.1C577.1,350.8 567.7,354.1 558,357.2C552.3,337.6 544.8,317.2 535.5,296.3C544.7,275.5 552.1,255.2 557.7,235.7C567.6,238.8 577,242.2 585.8,245.9C621.2,261 644.1,280.8 644.1,296.5C644,312.2 621.1,332.1 585.7,347.1Z" style="fill:rgb(97,218,251);fill-rule:nonzero;"/>
            <circle cx="420.9" cy="296.5" r="45.7" style="fill:rgb(97,218,251);"/>
        </g>
    </g>
    <g id="electron.svg" transform="matrix(0.8,0,0,0.8,1141.59,1000)">
        <g transform="matrix(1,0,0,1,-1155,-1250)">
            <g>
                <path d="M824.843,542.317C499.892,483.134 242.96,545.093 140.562,722.433C64.151,854.768 85.964,1030.25 193.501,1217.83C199.43,1228.18 210.485,1234.59 222.417,1234.59C228.236,1234.59 233.955,1233.07 239.002,1230.17C254.865,1221.07 260.435,1200.53 251.346,1184.66C154.466,1015.72 135.585,864.271 198.282,755.753C283.334,608.43 512.483,553.165 812.878,607.888C815.007,608.308 817.172,608.52 819.342,608.52C837.632,608.52 852.683,593.47 852.683,575.18C852.683,572.776 852.422,570.378 851.907,568.03C848.978,554.759 838.216,544.55 824.81,542.324L824.843,542.317ZM362.482,1445.8C493.864,1590.2 664.568,1725.63 859.247,1838.04C1330.6,2110.18 1832.41,2182.92 2079.71,2014.29C2088.51,2008.05 2093.76,1997.9 2093.76,1987.1C2093.76,1968.82 2078.71,1953.78 2060.43,1953.78C2053.95,1953.78 2047.6,1955.67 2042.17,1959.22C1820.83,2110.15 1344.15,2041.05 892.575,1780.32C703.695,1671.26 538.411,1540.13 411.783,1400.97C402.794,1390.77 388.43,1387.04 375.615,1391.58C362.357,1396.29 353.447,1408.91 353.447,1422.99C353.447,1431.46 356.68,1439.62 362.482,1445.8Z" style="fill:rgb(45,208,237);fill-rule:nonzero;"/>
                <path d="M2000.85,1405.27C2213.61,1153.92 2287.91,901.105 2185.74,724.118C2110.55,593.892 1951.58,525.135 1740.34,522.392C1722.07,522.157 1706.83,536.991 1706.57,555.268C1706.37,568.724 1714.36,581.032 1726.73,586.329C1730.75,588.059 1735.08,588.98 1739.45,589.039C1929.44,591.495 2066.41,650.743 2128.02,757.445C2212.88,904.455 2146.64,1129.91 1949.99,1362.23C1944.63,1368.3 1941.67,1376.13 1941.67,1384.23C1941.67,1394.03 1946,1403.34 1953.48,1409.67C1959.5,1414.74 1967.12,1417.53 1975,1417.53C1985.01,1417.53 1994.51,1413.03 2000.85,1405.27ZM1454.04,553.42C1261.65,594.649 1056.9,675.234 860.266,788.761C373.643,1069.71 56.216,1483.94 100.319,1784.34C102.386,1800.94 116.654,1813.54 133.384,1813.54C151.663,1813.54 166.704,1798.5 166.704,1780.22C166.704,1778.35 166.547,1776.49 166.235,1774.64C127.108,1507.95 427.98,1115.27 893.561,846.481C1084.32,736.337 1282.61,658.332 1468.01,618.566C1482.78,614.854 1493.22,601.467 1493.22,586.237C1493.22,567.951 1478.17,552.903 1459.89,552.903C1457.93,552.903 1455.97,553.076 1454.04,553.42Z" style="fill:rgb(45,208,237);fill-rule:nonzero;"/>
                <path d="M665.711,1992.57C777.004,2303.18 958.968,2494.45 1163.63,2494.45C1312.87,2494.45 1450.95,2392.72 1558.64,2213.6C1563.52,2206.02 1565.12,2196.78 1563.08,2188C1559.6,2172.96 1546.08,2162.22 1530.63,2162.22C1523.24,2162.22 1516.05,2164.68 1510.21,2169.22C1506.68,2171.95 1503.74,2175.36 1501.56,2179.25C1404.77,2340.23 1285.89,2427.83 1163.63,2427.83C993.66,2427.83 831.315,2257.22 728.473,1970.09C725.623,1961.6 719.475,1954.6 711.421,1950.68C707.43,1948.75 703.094,1947.63 698.666,1947.39C698.081,1947.36 697.495,1947.34 696.91,1947.34C679.031,1947.34 664.167,1961.71 663.562,1979.58C663.418,1984.01 664.159,1988.43 665.744,1992.57L665.711,1992.57ZM1681.89,1931.79C1739.48,1747.8 1770.38,1535.48 1770.38,1314.23C1770.38,762.226 1577.2,286.346 1302,164.146C1297.9,162.425 1293.51,161.538 1289.07,161.538C1270.79,161.538 1255.75,176.583 1255.75,194.866C1255.75,207.781 1263.25,219.581 1274.95,225.053C1520.4,334.054 1703.77,785.665 1703.77,1314.23C1703.77,1528.84 1673.79,1734.47 1618.31,1911.9C1615.41,1920.39 1616.07,1929.71 1620.14,1937.71C1625.81,1948.88 1637.32,1955.95 1649.85,1955.95C1664.68,1955.95 1677.81,1946.05 1681.89,1931.79ZM2309.44,1899.17C2309.44,1898.83 2309.44,1898.49 2309.44,1898.15C2309.44,1810.66 2237.45,1738.67 2149.96,1738.67C2062.48,1738.67 1990.49,1810.66 1990.49,1898.15C1990.49,1898.49 1990.49,1898.83 1990.49,1899.17C1991.05,1986.27 2062.86,2057.63 2149.96,2057.63C2237.07,2057.63 2308.88,1986.27 2309.44,1899.17ZM2242.79,1899.17C2242.78,1950.09 2200.88,1991.99 2149.96,1992C2099.04,1992 2057.14,1950.1 2057.14,1899.17C2057.14,1848.25 2099.05,1806.35 2149.97,1806.35C2200.89,1806.35 2242.79,1848.25 2242.79,1899.17ZM174.993,2058.65L175.026,2058.65C262.502,2058.65 334.484,1986.66 334.484,1899.19L334.484,1899.16C334.484,1811.68 262.499,1739.69 175.019,1739.69L174.993,1739.69C87.513,1739.69 15.528,1811.68 15.528,1899.16L15.528,1899.18C15.528,1986.66 87.513,2058.65 174.993,2058.65ZM175.006,1992C124.07,1992 82.156,1950.09 82.156,1899.15C82.156,1848.21 124.07,1806.3 175.006,1806.3C225.942,1806.3 267.856,1848.21 267.856,1899.15C267.856,1950.09 225.942,1992 175.006,1992Z" style="fill:rgb(45,208,237);fill-rule:nonzero;"/>
                <path d="M1163.63,326.818C1228.01,326.823 1286.34,287.843 1310.97,228.364C1318.98,209.023 1323.1,188.293 1323.1,167.359C1323.1,79.874 1251.12,7.88 1163.63,7.862C1163.62,7.862 1163.62,7.862 1163.61,7.862C1076.13,7.862 1004.14,79.847 1004.14,167.327C1004.14,209.611 1020.96,250.207 1050.86,280.102C1080.76,309.999 1121.35,326.812 1163.63,326.811L1163.63,326.818ZM1163.63,260.163C1126.16,260.159 1092.21,237.475 1077.87,202.861C1068.44,180.126 1068.44,154.547 1077.87,131.812C1087.28,109.074 1105.37,90.99 1128.11,81.576C1139.37,76.911 1151.44,74.51 1163.63,74.51C1214.56,74.51 1256.48,116.421 1256.48,167.353C1256.48,218.285 1214.57,260.196 1163.63,260.196L1163.63,260.163ZM1187.99,1427.05C1158.09,1433.51 1126.81,1427.81 1101.09,1411.24C1068.16,1390.02 1048.21,1353.42 1048.21,1314.24C1048.21,1260.08 1086.33,1212.86 1139.27,1201.43C1200.69,1189.16 1261.47,1229.01 1274.7,1290.24C1287.92,1351.46 1249.01,1412.85 1187.99,1427.02L1187.99,1427.05Z" style="fill:rgb(45,208,237);fill-rule:nonzero;"/>
            </g>
        </g>
    </g>
</svg>
